<?xml version="1.0" standalone="no"?>
<!DOCTYPE svg PUBLIC "-//W3C//DTD SVG 1.1//EN" "http://www.w3.org/Graphics/SVG/1.1/DTD/svg11.dtd" >
<svg xmlns="http://www.w3.org/2000/svg">
<metadata>
Created by FontForge 20120731 at Sat Jul 23 17:37:42 2016
 By admin
</metadata>
<defs>
<font id="iconfont" horiz-adv-x="1024" >
  <font-face 
    font-family="iconfont"
    font-weight="500"
    font-stretch="normal"
    units-per-em="1024"
    panose-1="2 0 6 3 0 0 0 0 0 0"
    ascent="896"
    descent="-128"
    x-height="792"
    bbox="-0.225806 -224 1600 896.273"
    underline-thickness="50"
    underline-position="-100"
    unicode-range="U+0078-E647"
  />
<missing-glyph horiz-adv-x="374" 
d="M34 0v682h272v-682h-272zM68 34h204v614h-204v-614z" />
    <glyph glyph-name=".notdef" horiz-adv-x="374" 
d="M34 0v682h272v-682h-272zM68 34h204v614h-204v-614z" />
    <glyph glyph-name=".null" horiz-adv-x="0" 
 />
    <glyph glyph-name="nonmarkingreturn" horiz-adv-x="341" 
 />
    <glyph glyph-name="x" unicode="x" horiz-adv-x="1001" 
d="M281 543q-27 -1 -53 -1h-83q-18 0 -36.5 -6t-32.5 -18.5t-23 -32t-9 -45.5v-76h912v41q0 16 -0.5 30t-0.5 18q0 13 -5 29t-17 29.5t-31.5 22.5t-49.5 9h-133v-97h-438v97zM955 310v-52q0 -23 0.5 -52t0.5 -58t-10.5 -47.5t-26 -30t-33 -16t-31.5 -4.5q-14 -1 -29.5 -0.5
t-29.5 0.5h-32l-45 128h-439l-44 -128h-29h-34q-20 0 -45 1q-25 0 -41 9.5t-25.5 23t-13.5 29.5t-4 30v167h911zM163 247q-12 0 -21 -8.5t-9 -21.5t9 -21.5t21 -8.5q13 0 22 8.5t9 21.5t-9 21.5t-22 8.5zM316 123q-8 -26 -14 -48q-5 -19 -10.5 -37t-7.5 -25t-3 -15t1 -14.5
t9.5 -10.5t21.5 -4h37h67h81h80h64h36q23 0 34 12t2 38q-5 13 -9.5 30.5t-9.5 34.5q-5 19 -11 39h-368zM336 498v228q0 11 2.5 23t10 21.5t20.5 15.5t34 6h188q31 0 51.5 -14.5t20.5 -52.5v-227h-327z" />
    <glyph glyph-name="uniE600" unicode="&#xe600;" horiz-adv-x="1000" 
d="M939.5 662q-11.5 12 -28.5 12t-28 -12l-396 -396q-12 -12 -12 -28.5t11.5 -28t28.5 -11.5t28 11l396 396q12 12 12 28.5t-11.5 28.5zM792.5 237q-16.5 0 -28 -11.5t-11.5 -27.5v-199q0 -16 -11.5 -27.5t-28.5 -11.5h-515q-16 0 -28 11.5t-12 27.5v635q0 16 12 27.5
t28 11.5h396q17 0 28.5 11.5t11.5 28t-11.5 28t-28.5 11.5h-436q-32 0 -55.5 -23t-23.5 -56v-713q0 -33 23.5 -56.5t55.5 -23.5h595q33 0 56 23.5t23 56.5v238q0 16 -11.5 27.5t-28 11.5z" />
    <glyph glyph-name="uniE601" unicode="&#xe601;" horiz-adv-x="1000" 
d="M915 193h85v214h-85q-64 0 -77.5 32.5t31.5 78.5l60 60l-151 151l-60 -60q-46 -45 -78.5 -31.5t-32.5 77.5v1v84h-214v-85q0 -65 -32.5 -78t-78.5 32l-60 60l-151 -151l60 -60q45 -46 31.5 -78.5t-77.5 -32.5h-85v-214h85q64 0 77.5 -32.5t-31.5 -78.5l-60 -60l151 -151
l60 60q46 45 78.5 32t32.5 -78v-85h214v84v1q0 64 32.5 77.5t78.5 -31.5l60 -60l151 151l-60 60q-45 46 -31.5 78.5t77.5 32.5zM500 112q-78 0 -133 55t-55 133t55 133t133 55t133 -55t55 -133t-55 -133t-133 -55z" />
    <glyph glyph-name="uniE602" unicode="&#xe602;" 
d="M320 416h128v-384h-128v384zM576 416h128v-384h-128v384zM992 672h-352v96q0 13 -9.5 22.5t-22.5 9.5h-192q-13 0 -22.5 -9.5t-9.5 -22.5v-96h-352q-13 0 -22.5 -9.5t-9.5 -22.5v-64q0 -13 9.5 -22.5t22.5 -9.5h32v-736q0 -13 9.5 -22.5t22.5 -9.5h832q13 0 22.5 9.5
t9.5 22.5v736h32q13 0 22.5 9.5t9.5 22.5v64q0 13 -9.5 22.5t-22.5 9.5zM832 -96h-640v640h640v-640z" />
    <glyph glyph-name="uniE603" unicode="&#xe603;" 
d="M234 639h551l172 -213l-442 -447l-450 442z" />
    <glyph glyph-name="uniE604" unicode="&#xe604;" 
d="M642 643l213 -213l-470 -471l-214 214zM727 729l214 -214l-64 -64l-214 214zM150 152l214 -214l-299 -85zM810 732l134 -134q16 -17 15.5 -41t-18.5 -42t-42 -18.5t-41 15.5l-134 134q-16 17 -15.5 41t18.5 42t42 18.5t41 -15.5z" />
    <glyph glyph-name="uniE605" unicode="&#xe605;" 
d="M918 -118q0 -12 -9 -21t-21 -9h-752q-12 0 -21 9t-9 21v743q0 13 9 21.5t21 8.5h95v-30q0 -39 27.5 -66t66 -27t66 27t27.5 66v30h188v-30q0 -39 27.5 -66t66 -27t66 27t27.5 66v30h95q12 0 21 -8.5t9 -21.5v-743zM856 439h-688v-525h688v525zM325 285h-94v92h94v-92z
M325 130h-94v93h94v-93zM325 -25h-94v93h94v-93zM481 285h-94v92h94v-92zM481 130h-94v93h94v-93zM481 -25h-94v93h94v-93zM637 285h-94v92h94v-92zM637 130h-94v93h94v-93zM637 -25h-94v93h94v-93zM793 285h-94v92h94v-92zM793 130h-94v93h94v-93zM793 -25h-94v93h94v-93z
M698.5 563q-25.5 0 -43.5 17.5t-18 43.5v63q0 26 18 43.5t43.5 17.5t43.5 -17.5t18 -43.5v-63q0 -26 -18 -43.5t-43.5 -17.5zM323.5 563q-25.5 0 -43.5 17.5t-18 43.5v63q0 26 18 43.5t43.5 17.5t43.5 -17.5t18 -43.5v-63q0 -26 -18 -43.5t-43.5 -17.5z" />
    <glyph glyph-name="uniE606" unicode="&#xe606;" 
d="M530 24h-465v225l15 -1q29 -1 44 13q9 9 9 26q0 23 -12 35q-7 6 -18 9t-17 2.5t-8 -0.5l-15 -1v15v209h467v-27h-440v-169q30 -2 49 -18q21 -20 21 -55q0 -29 -18 -46t-50 -20v-170h438v-27zM959 24h-465v27h438v171q-27 3 -43 18q-19 18 -19 48q0 37 22 56q17 14 42 16
v169h-440v27h467v-225l-15 2q-22 3 -36 -9q-13 -12 -13 -36q0 -18 10 -28q6 -6 16 -9t15 -3h6l15 1v-14v-211zM285 118.5q0 -5.5 -4 -9.5t-10 -4t-10 4t-4 9.5t4 9.5t10 4t10 -4t4 -9.5zM285 185.5q0 -5.5 -4 -9.5t-10 -4t-10 4t-4 9.5t4 9.5t10 4t10 -4t4 -9.5zM285 252.5
q0 -5.5 -4 -9.5t-10 -4t-10 4t-4 9.5t4 9.5t10 4t10 -4t4 -9.5zM285 386.5q0 -5.5 -4 -9.5t-10 -4t-10 4t-4 9.5t4 9.5t10 4t10 -4t4 -9.5zM285 453.5q0 -5.5 -4 -9.5t-10 -4t-10 4t-4 9.5t4 9.5t10 4t10 -4t4 -9.5zM785 118.5q0 -5.5 -4 -9.5t-9.5 -4t-9.5 4t-4 9.5t4 9.5
t9.5 4t9.5 -4t4 -9.5zM785 185.5q0 -5.5 -4 -9.5t-9.5 -4t-9.5 4t-4 9.5t4 9.5t9.5 4t9.5 -4t4 -9.5zM785 252.5q0 -5.5 -4 -9.5t-9.5 -4t-9.5 4t-4 9.5t4 9.5t9.5 4t9.5 -4t4 -9.5zM785 319.5q0 -5.5 -4 -9.5t-9.5 -4t-9.5 4t-4 9.5t4 9.5t9.5 4t9.5 -4t4 -9.5zM285 319.5
q0 -5.5 -4 -9.5t-10 -4t-10 4t-4 9.5t4 9.5t10 4t10 -4t4 -9.5zM785 386.5q0 -5.5 -4 -9.5t-9.5 -4t-9.5 4t-4 9.5t4 9.5t9.5 4t9.5 -4t4 -9.5zM785 453.5q0 -5.5 -4 -9.5t-9.5 -4t-9.5 4t-4 9.5t4 9.5t9.5 4t9.5 -4t4 -9.5zM566 270h69v46h-45l74 137h-78l-51 -114h-22
l-52 114h-78l74 -137h-46v-46h68l7 -14v-22h-75v-46h75v-67h73v67h76v46h-76v22z" />
    <glyph glyph-name="uniE607" unicode="&#xe607;" 
d="M742.5 81q-28.5 0 -48.5 -19.5t-20 -48t20 -49t48.5 -20.5t48.5 20.5t20 49t-20 48t-48.5 19.5zM368 81q-28 0 -47.5 -19t-19.5 -48q0 -28 19.5 -48.5t47.5 -20.5q29 0 49 20.5t20 48.5q0 29 -20 48t-49 19zM871 690h-610l-15 34q0 4 -1.5 11t-8 24t-15 30.5t-24.5 24
t-35 10.5q-4 0 -9 -0.5t-19 -6t-24.5 -14.5t-19 -29.5t-8.5 -47.5h69q84 -529 84 -544q0 -17 10.5 -42t23.5 -25h605q13 0 23 18t10 36q0 15 -10 31t-23 16h-559l-13 68l573 2q3 0 7.5 0.5t15.5 4t19.5 9.5t16 19.5t7.5 31.5v271l-8 25q-19 43 -62 43zM330.5 350
q-14.5 0 -24.5 10.5t-10 24.5t10 24t24.5 10t24.5 -10t10 -24t-10 -24.5t-24.5 -10.5zM330.5 452q-14.5 0 -24.5 10t-10 24.5t10 24.5t24.5 10t24.5 -10t10 -24.5t-10 -24.5t-24.5 -10zM330.5 553q-14.5 0 -24.5 10.5t-10 24.5t10 24t24.5 10t24.5 -10t10 -24t-10 -24.5
t-24.5 -10.5zM432 350q-14 0 -24 10.5t-10 24.5t10 24t24 10t24 -10t10 -24t-10 -24.5t-24 -10.5zM432 452q-14 0 -24 10t-10 24.5t10 24.5t24 10t24 -10t10 -24.5t-10 -24.5t-24 -10zM432 553q-14 0 -24 10.5t-10 24.5t10 24t24 10t24 -10t10 -24t-10 -24.5t-24 -10.5z
M533.5 350q-14.5 0 -24.5 10.5t-10 24.5t10 24t24.5 10t24.5 -10t10 -24t-10 -24.5t-24.5 -10.5zM533.5 452q-14.5 0 -24.5 10t-10 24.5t10 24.5t24.5 10t24.5 -10t10 -24.5t-10 -24.5t-24.5 -10zM533.5 553q-14.5 0 -24.5 10.5t-10 24.5t10 24t24.5 10t24.5 -10t10 -24
t-10 -24.5t-24.5 -10.5zM635 350q-14 0 -24 10.5t-10 24.5t10 24t24 10t24.5 -10t10.5 -24t-10.5 -24.5t-24.5 -10.5zM635 452q-14 0 -24 10t-10 24.5t10 24.5t24 10t24.5 -10t10.5 -24.5t-10.5 -24.5t-24.5 -10zM635 553q-14 0 -24 10.5t-10 24.5t10 24t24 10t24.5 -10
t10.5 -24t-10.5 -24.5t-24.5 -10.5zM736.5 350q-14.5 0 -24.5 10.5t-10 24.5t10 24t24.5 10t24.5 -10t10 -24t-10 -24.5t-24.5 -10.5zM736.5 452q-14.5 0 -24.5 10t-10 24.5t10 24.5t24.5 10t24.5 -10t10 -24.5t-10 -24.5t-24.5 -10zM736.5 553q-14.5 0 -24.5 10.5t-10 24.5
t10 24t24.5 10t24.5 -10t10 -24t-10 -24.5t-24.5 -10.5zM838 350q-14 0 -24 10.5t-10 24.5t10 24t24 10t24 -10t10 -24t-10 -24.5t-24 -10.5zM838 452q-14 0 -24 10t-10 24.5t10 24.5t24 10t24 -10t10 -24.5t-10 -24.5t-24 -10zM838 553q-14 0 -24 10.5t-10 24.5t10 24
t24 10t24 -10t10 -24t-10 -24.5t-24 -10.5z" />
    <glyph glyph-name="uniE608" unicode="&#xe608;" 
d="M233 -50q14 -6 40 -14.5t99.5 -22.5t137.5 -14q18 1 48 3.5t103.5 15t125.5 30.5l-60 513l99 -31q17 -15 31 1q8 9 96 155q5 10 5 15t-3 6l-3 1l-142 71q-3 3 -9.5 8.5t-32.5 15t-59 9.5h-64q0 -6 -1 -15t-8 -32t-19.5 -40.5t-40.5 -32t-66 -14.5q-6 1 -15 2t-32 9.5
t-40.5 21t-31.5 39.5t-14 62h-64q-8 -1 -21.5 -3t-41.5 -10t-40 -20l-142 -69q-9 -12 1 -32l95 -147q17 -14 35 2l83 26z" />
    <glyph glyph-name="uniE609" unicode="&#xe609;" 
d="M924 418q6 5 -41.5 -47.5t-98.5 -107.5l-50 -55q-1 -2 -3 -4t-9.5 -6t-17 -5t-25.5 2t-35 13q-66 0 -127 -19.5t-104.5 -47.5t-82.5 -67.5t-61.5 -72t-42 -68t-24.5 -48t-8 -19.5l-6 -3q-4 -2 -15.5 -5.5t-21.5 -4.5t-22.5 1.5t-21.5 10.5t-15 25.5t-6 43.5q0 46 53 104
t132 107t179.5 81.5t186.5 30.5q10 11 72 91t118.5 154t57.5 74q3 -2 8 -6t17 -18.5t18.5 -31.5t7 -44.5t-11.5 -57.5zM520 340l252 330l72 -110l-203 -249zM770 617l-194 -249l60 -15l163 203zM518 461q-24 0 -41 17t-17 41q0 25 18 43q6 12 21.5 23.5t31.5 20t31 27
t19 44.5t-3 72q44 -10 64.5 -43t15 -73.5t-23 -79.5t-50 -65.5t-66.5 -26.5z" />
    <glyph glyph-name="uniE60A" unicode="&#xe60a;" 
d="M832 160q-46 0 -86.5 -20.5t-67.5 -56.5l-301 152q7 25 7 52q0 30 -9 58l301 151q26 -38 67.5 -59.5t88.5 -21.5q80 0 136 56.5t56 136t-56 135.5t-136 56t-136 -56t-56 -136q0 -10 1 -21l-317 -159q-55 52 -132 52q-80 0 -136 -56t-56 -135.5t56 -136t136 -56.5t136 57
l314 -158q-2 -13 -2 -26q0 -80 56 -136t136 -56t136 56t56 136t-56 136t-136 56z" />
    <glyph glyph-name="uniE60B" unicode="&#xe60b;" 
d="M890 32q-18 25 -41.5 60.5t-44 78.5t-35.5 91t-15 98q0 48 -13.5 87.5t-35.5 70t-52 51.5t-64 31q7 11 11 24.5t4 27.5q0 40 -27.5 68t-68 28t-68.5 -28t-28 -68q0 -28 16 -54q-31 -10 -60.5 -31t-51.5 -50.5t-36 -69t-14 -88.5q0 -52 -14.5 -99t-35 -89t-43 -78.5
t-39.5 -65.5q-11 -17 -4.5 -28.5t20.5 -11.5h721q5 0 11 3.5t10 9.5t4.5 14.5t-6.5 17.5zM536 625q-11 -11 -27 -12h-2q-16 0 -26.5 11.5t-10.5 27.5q0 17 10.5 27.5t27.5 10.5t28 -10.5t11 -27.5q0 -16 -11 -27zM512 -148q38 0 65.5 27.5t27.5 65.5h-186q0 -38 27.5 -65.5
t65.5 -27.5z" />
    <glyph glyph-name="uniE60C" unicode="&#xe60c;" 
d="M467 732q-93 0 -177.5 -36t-146 -97.5t-97.5 -146t-36 -178t36 -178t97.5 -146t146 -97.5t177.5 -36t178 36t146 97.5t97.5 146t36.5 177.5h-458v458zM515 786v-457l314 333q-135 124 -314 124zM1018 303q0 97 -38 183.5t-106 149.5l-314 -333v-3h458v3z" />
    <glyph glyph-name="uniE60D" unicode="&#xe60d;" 
d="M610 736q-116 27 -230.5 -11t-196 -127.5t-105.5 -207.5q-4 -20 16 -26l22 -7q21 -7 23 -8q8 -2 15 1.5t10 9.5l3 5q20 92 84.5 162t154 99t180.5 7q85 -20 149.5 -78.5t95.5 -139.5l-77 -10q-8 -5 -8 -15q0 -8 8 -13l170 -84q5 -1 9 -1q11 0 18.5 8t6.5 19v8
q-11 147 -106.5 261t-241.5 148zM929 237l-21 7q-22 8 -23 8q-9 3 -16 -1t-10 -9l-2 -5q-21 -93 -85.5 -162.5t-154 -98.5t-179.5 -8q-86 20 -150.5 79t-94.5 140l76 9q9 6 8 15q0 9 -8 14l-169 83q-5 2 -9 2q-11 -1 -18.5 -9t-7.5 -19v-8q12 -147 107.5 -261t240.5 -148
q117 -27 231.5 11t196 128t104.5 207v1q4 19 -16 25zM401 264q-14 0 -24 -10t-10 -24.5t10 -24.5t24 -10h76v-91q0 -14 10 -24t24.5 -10t24.5 10t10 24v91h76q15 0 25 10t10 24.5t-10 24.5t-25 10h-76v43h76q15 0 25 10t10 24.5t-10 24.5t-25 10h-43l64 64q10 10 10 24.5
t-10 24.5t-24.5 10t-24.5 -10l-82 -82l-82 82q-11 10 -25 10t-24.5 -10t-10.5 -24.5t11 -24.5l63 -64h-43q-14 0 -24 -10t-10 -24.5t10 -24.5t24 -10h76v-43h-76z" />
    <glyph glyph-name="uniE60E" unicode="&#xe60e;" 
d="M687 364q0 33 -22.5 61.5t-60.5 45.5q-35 81 -19 208q8 2 8 11q0 6 -5 9q-7 49 -13 50q-4 1 -66 0q-61 1 -65 0q-7 -1 -13 -50q-5 -3 -5 -9q0 -5 3 -8t8 -3q16 -129 -20 -210q-37 -17 -58.5 -44.5t-21.5 -60.5v-9v-7v-17v-75v-265v-84v-8q0 -20 14 -34t33 -14h256
q19 0 33 14t14 34v8v84v265v75v17v7v9zM665 75h-221v295h221v-295z" />
    <glyph glyph-name="uniE60F" unicode="&#xe60f;" 
d="M919 -193h-278q-7 0 -15 2q-9 -2 -16 -2h-493q-25 0 -43 18t-18 44v862q0 26 18 44t43 18h493q26 0 44 -18t18 -44v-215h247q25 0 43 -18t18 -44v-585q0 -26 -18 -44t-43 -18zM302 608h-123v-123h123v123zM302 362h-123v-124h123v124zM302 115h-123v-123h123v123z
M518 608h-123v-123h123v123zM518 362h-123v-124h123v124zM518 115h-123v-123h123v123zM857 362h-123v-124h123v124zM857 115h-123v-123h123v123z" />
    <glyph glyph-name="uniE610" unicode="&#xe610;" 
d="M42 -9h802v159h-802v-159zM864 -9h99v159h-99v-159zM875 352q39 -33 38 -66q-1 -15 -11 -30t-16 -20t-10 -8l9 -13q5 3 12 9t19 24t13 37q2 41 -43 80q-40 33 -38 66q1 15 11 30t16.5 20t9.5 7l-9 14q-5 -4 -12 -9.5t-19 -23.5t-13 -37q-3 -41 43 -80zM910 437
q6 -35 41 -55l8 14q-3 2 -8 5.5t-14 14.5t-11 23q-5 29 25 62q38 42 29 73q-3 12 -14 21t-17 11l-9 3l-5 -15q24 -6 29 -25q7 -22 -25 -57q-35 -39 -29 -75z" />
    <glyph glyph-name="uniE611" unicode="&#xe611;" horiz-adv-x="1055" 
d="M752 392q-125 0 -213.5 -88.5t-88.5 -213.5t88.5 -213.5t213.5 -88.5t213.5 88.5t88.5 213.5t-88.5 213.5t-213.5 88.5zM794 109h48q6 0 6 -7v-28h-80v-45h80v-34h-80q-1 -7 -1 -8v-53q1 -7 -6 -6h-30q-7 -1 -7 6v53v7h-83v35h83v45h-84v31q1 3 6 3q12 1 57 1h8
q-14 23 -43 73t-44 76l7 1h34q7 0 11 -6q15 -30 70 -134q58 107 72 134q4 6 10 6h32h7q-33 -58 -88 -150h15zM159 734q12 -8 24.5 -19.5t22.5 -25.5q5 -8 12 -18q7 -9 14 -19l14 -22h208q7 9 13 20q5 9 11 17.5t11 15.5q10 14 20 26t29 24q8 4 13.5 12t7 15.5t-2 15
t-13.5 11.5q-9 3 -15.5 2t-12.5 -4q-7 -2 -14 -5t-17 -3t-16.5 3.5t-12.5 8.5q-4 3 -11 10q-6 5 -16 8q-20 8 -32.5 3t-24.5 -15q-10 -10 -16 -14q-3 -2 -5 -2q-6 3 -11 7q-5 3 -9.5 6.5t-8.5 7.5q-8 8 -24 10.5t-29 -5.5q-17 -10 -24 -17.5t-21 -10.5q-9 -2 -18 1t-20 6
q-10 3 -19 4t-16 -4q-14 -11 -9 -26t18 -24zM634 420l-2 2q-25 27 -49 48q-30 23 -52 44t-37 37q-18 19 -30 34h-226q-13 -16 -31 -35q-14 -16 -35 -36t-47 -42q-30 -26 -56 -58t-43 -70t-23.5 -82t2.5 -91q8 -43 33.5 -86t68 -78t104 -57t140.5 -22q45 0 87 8
q-36 73 -36 154q0 113 64.5 203t167.5 127z" />
    <glyph glyph-name="uniE612" unicode="&#xe612;" 
d="M894 -7l-22 615q0 41 -31 70t-75 29h-511q-44 0 -75 -29t-31 -70l-21 -615h73q-1 -5 -1 -9v-20q0 -19 14 -32.5t33 -13.5h66q19 0 32.5 13.5t13.5 32.5v20q0 4 -1 9h305q-1 -5 -1 -9v-20q0 -19 13.5 -32.5t32.5 -13.5h67q19 0 32.5 13.5t13.5 32.5v20q0 4 -1 9h74z
M259 89q-24 0 -41.5 17t-17.5 41.5t17.5 41.5t41.5 17t41 -17t17 -41.5t-17 -41.5t-41 -17zM217 301l8 253q0 41 17 59t55 18h427q38 0 54.5 -18t16.5 -59l9 -253h-587zM762.5 89q-24.5 0 -41.5 17t-17 41.5t17 41.5t41.5 17t41.5 -17t17 -41.5t-17 -41.5t-41.5 -17z" />
    <glyph glyph-name="uniE613" unicode="&#xe613;" 
d="M203 125q-32 0 -54.5 -21.5t-22.5 -52t22.5 -52t54.5 -21.5t54.5 21.5t22.5 52t-22.5 52t-54.5 21.5zM249 -81h-93q-38 0 -65 25.5t-27 62.5v413q0 37 27 63t65 26h93q39 0 66 -26t27 -63v-413q0 -37 -27 -62.5t-66 -25.5zM854 -49q-24 -32 -64 -32h-139q-41 0 -71 29
h-115q-38 0 -65 26t-27 63v324q0 37 27 63t65 26h25q25 32 37 59q11 23 21 63t10 55q0 35 37 50q43 16 81 -16q26 -22 37 -63q19 -74 -35 -148h189q38 0 65.5 -26t27.5 -63v-21q0 -14 -0.5 -54t-3.5 -76.5t-10.5 -82.5t-18.5 -81t-30 -62t-43 -33z" />
    <glyph glyph-name="uniE614" unicode="&#xe614;" 
d="M510 812q-139 0 -256 -68t-185.5 -185.5t-68.5 -256.5t68.5 -256.5t185.5 -185.5t256 -68q211 0 360.5 149.5t149.5 360.5q0 139 -68 256t-185.5 185.5t-256.5 68.5zM719 160q14 -13 14 -33t-14 -34t-34 -14t-33 14l-142 141l-141 -141q-14 -14 -34 -14t-34 14t-14 33.5
t14 33.5l141 142l-141 141q-14 14 -14 34t14 34t34 14t34 -14l141 -141l142 141q14 14 33.5 14t33.5 -14t14 -34t-14 -34l-141 -141z" />
    <glyph glyph-name="uniE615" unicode="&#xe615;" 
d="M884 568h-370q-17 0 -29 12t-12 29v-1q0 30 -21.5 51.5t-51.5 21.5h-260q-30 0 -51 -21.5t-21 -51.5v-614q0 -30 21 -51.5t51 -21.5h744q30 0 51 21.5t21 51.5v501q0 30 -21 51.5t-51 21.5zM789 231l-166 -119q-12 -8 -24 0q-5 4 -5 9t5 8l138 99h-426q-7 0 -11.5 3.5
t-4.5 8.5t4.5 8t11.5 3h426l-138 99q-5 4 -5 9t5 8q12 9 24 0l166 -119q5 -2 5 -8q0 -3 -1.5 -5t-2.5 -3z" />
    <glyph glyph-name="uniE616" unicode="&#xe616;" 
d="M298 555l-212 78v-671v-28q0 -22 15.5 -38.5t37.5 -16.5h27h694h27q22 0 37.5 16.5t15.5 38.5v28v661l-186 -68q-243 -89 -456 0zM666 235q0 -6 -4.5 -10t-11.5 -4h-109v-54h109q7 0 11.5 -4t4.5 -9v-27q0 -6 -4.5 -10t-11.5 -4h-109v-67q0 -6 -4.5 -10t-10.5 -4h-31
q-7 0 -11.5 4t-4.5 10v67h-108q-7 0 -11.5 4t-4.5 10v27q0 5 4.5 9t11.5 4h108v54h-108q-7 0 -11.5 4t-4.5 10v27q0 5 4.5 9t11.5 4h42l-54 75q-7 9 8 16l29 14q15 6 22 -2l74 -103h3h31h3l74 103q7 8 21 2l30 -14q15 -7 8 -16l-54 -75h42q7 0 11.5 -4t4.5 -9v-27zM887 730
h-27h-694h-27q-22 0 -37.5 -16t-15.5 -38v-14l243 -86q173 -79 395 0l216 75v25q0 22 -15.5 38t-37.5 16z" />
    <glyph glyph-name="uniE617" unicode="&#xe617;" 
d="M876 646h-728q-35 0 -59.5 -24.5t-24.5 -59.5v-504q0 -35 24.5 -59.5t59.5 -24.5h728q35 0 59.5 24.5t24.5 59.5v504q0 35 -24.5 59.5t-59.5 24.5zM148 590h728q11 0 19.5 -8.5t8.5 -19.5v-84h-784v84q0 11 8.5 19.5t19.5 8.5zM876 30h-728q-11 0 -19.5 8.5t-8.5 19.5
v252h784v-252q0 -11 -8.5 -19.5t-19.5 -8.5zM176 198h56v-112h-56v112zM288 198h56v-112h-56v112zM400 198h56v-112h-56v112z" />
    <glyph glyph-name="uniE618" unicode="&#xe618;" 
d="M898 538q-10 -42 -11 -43q-41 -106 -156 -125q-14 -3 -20 -2q-19 2 -41 -13q-194 -134 -295 -218q-3 -3 -57 -50q-59 58 -104 100q42 44 44 46q102 111 244 307q4 5 4 11q-3 73 46.5 128.5t123.5 64.5l6 2h41q6 -2 7 -2q57 -7 102 -45.5t60 -93.5q0 -1 6 -30v-37z
M593 640q115 -111 195 -188q30 21 44 57.5t7 72.5q-8 40 -38 69t-70 37q-81 15 -138 -48zM435 341q1 -26 26 -37q24 -11 44 7q15 14 53 51q13 13 14 27.5t-10 26.5q-13 14 -29.5 15.5t-30.5 -10.5q-12 -11 -56 -54q-11 -11 -11 -26zM110 -15q4 17 4 18q10 36 30 59
q4 4 52 51q8 -7 26 -24.5t27 -26.5q-31 -33 -32 -35q-25 -25 -28 -50q-3 -26 12.5 -43.5t41.5 -19t55 12.5q32 15 60 42q82 79 209 201q43 40 96 45q64 6 113.5 -38.5t44.5 -107.5q-4 -49 -38 -84q-12 -11 -123 -119q-26 26 -55 54q2 3 7 7.5t7 6.5q83 79 96 93q13 13 21 27
q16 29 -4 57q-16 22 -42.5 27.5t-49.5 -8.5q-9 -6 -21 -17q-37 -36 -105 -101.5t-94 -90.5q-56 -54 -113 -72q-2 -1 -42 -11h-35l-7 2q-81 15 -107 89q0 1 -6 24v32zM110 -15z" />
    <glyph glyph-name="uniE619" unicode="&#xe619;" horiz-adv-x="1176" 
d="M944 543l-1 1q-66 116 -184 187.5t-256 71.5q-103 0 -196 -40t-160 -107.5t-107 -160.5t-40 -195q0 -179 112 -316.5t284 -174.5q52 -12 107 -12q11 0 19.5 8.5t8.5 20.5t-8.5 20t-19.5 8q-49 0 -95 10q-153 34 -252 156t-99 280q0 91 35 173.5t95 142t142.5 95
t173.5 35.5q121 0 227.5 -64t165.5 -170q0 -1 1 -1q8 -12 23 -12q11 0 19.5 8.5t8.5 20.5q0 8 -4 15zM716 -37l324 445q13 19 36.5 22.5t42.5 -10.5l15 -11q19 -14 23 -37t-10 -42l-323 -445zM705 -53l108 -78l-130 -65zM293.5 385q27.5 0 47 19.5t19.5 47t-19.5 47
t-47 19.5t-46.5 -19.5t-19 -47t19 -47t46.5 -19.5zM692.5 385q27.5 0 47 19.5t19.5 47t-19.5 47t-47 19.5t-47 -19.5t-19.5 -47t19.5 -47t47 -19.5zM238 185q26 -88 99.5 -143t165.5 -55q91 0 164.5 55t98.5 142q5 15 -2.5 29t-22.5 18.5t-29 -3t-18 -22.5
q-19 -64 -72 -103.5t-119.5 -39.5t-119.5 40t-72 103q-4 15 -18 22.5t-29 3.5t-22.5 -18t-3.5 -29z" />
    <glyph glyph-name="uniE61A" unicode="&#xe61a;" 
d="M512 797q-104 0 -198 -40t-162.5 -108.5t-108.5 -162.5t-40 -198t40 -198t108.5 -162.5t162.5 -108.5t198 -40t198 40t162.5 108.5t108.5 162.5t40 198t-40 198t-108.5 162.5t-162.5 108.5t-198 40zM680 224q17 0 29 -12t12 -29t-12 -29t-29 -12h-127v-106q0 -17 -12 -29
t-29 -12t-29 12t-12 29v106h-127q-17 0 -29 12t-12 29t12 29t29 12h127v61h-127q-17 0 -29 12t-12 29t12 29t29 12h91l-110 129q-11 13 -10 30t14 28t30 9.5t28 -14.5l125 -145l125 145q11 13 28 14.5t30 -9.5t14 -28t-10 -30l-110 -129h91q17 0 29 -12t12 -29t-12 -29
t-29 -12h-127v-61h127zM680 224z" />
    <glyph glyph-name="uniE61B" unicode="&#xe61b;" 
d="M448 254l-384 494h896l-384 -494v-274l-128 -128v402z" />
    <glyph glyph-name="uniE61C" unicode="&#xe61c;" 
d="M922 761h-820q-42 0 -72 -30t-30 -73v-563q0 -42 30 -72t72 -30h52v-154l192 154h576q42 0 72 30t30 72v563q0 43 -30 73t-72 30zM819 216h-614v85h614v-85zM819 440h-614v84h614v-84z" />
    <glyph glyph-name="uniE61D" unicode="&#xe61d;" 
d="M618 396q45 36 76 94h-122q-22 -24 -58 -39q60 -2 104 -21v-34zM933 -34v668q0 36 -25.5 61.5t-61.5 25.5h-668q-36 0 -61.5 -25.5t-25.5 -61.5v-668q0 -36 25.5 -61.5t61.5 -25.5h668q36 0 61.5 25.5t25.5 61.5zM454 473q75 31 99 103h72q-3 -9 -10 -24q-5 -9 -7 -14
h168v-51q-77 -163 -302 -196v43q71 17 120 45q-41 22 -92 29v39q-19 -8 -48 -12v38zM246 545q50 -2 100 -22v-67q-43 24 -100 36v53zM236 382q79 19 132 48v149h70v-296h-70v89q-57 -33 -132 -55v65zM234 70q187 31 225 129h-216v51h226v9v29h84v-29v-9h233v-51h-224
q36 -96 226 -127v-48q-192 29 -278 118q-68 -89 -276 -118v46z" />
    <glyph glyph-name="uniE61E" unicode="&#xe61e;" 
d="M661 -54v410h28q11 0 19.5 -8t8.5 -20v-261q0 -50 35.5 -85.5t85.5 -35.5t85.5 35.5t35.5 85.5v501q0 40 -28 67l-99 98q-14 14 -32.5 14t-32 -13.5t-13.5 -32.5t13 -32l64 -65l-47 -49q-12 -12 -12 -28.5t12 -28.5q11 -12 28 -12h54v-419q0 -11 -8.5 -19.5t-20 -8.5
t-19.5 8.5t-8 19.5v261q0 50 -35.5 85.5t-85.5 35.5h-28v223q0 31 -22 53t-53 22h-390q-31 0 -53 -22t-22 -53v-726h-9q-19 0 -33 -13.5t-14 -32.5t14 -33t33 -14h558q19 0 33 14t14 33t-14 32.5t-33 13.5h-9zM255 654h272q17 0 29 -12t12 -29v-198q0 -17 -12 -29t-29 -12
h-272q-17 0 -29 12t-12 29v198q0 17 12 29t29 12z" />
    <glyph glyph-name="uniE61F" unicode="&#xe61f;" 
d="M512 780q-98 0 -186.5 -38t-153 -102.5t-102.5 -153t-38 -186.5t38 -186.5t102.5 -153t153 -102.5t186.5 -38t186.5 38t153 102.5t102.5 153t38 186.5t-38 186.5t-102.5 153t-153 102.5t-186.5 38zM768 268h-512v64h512v-64z" />
    <glyph glyph-name="uniE620" unicode="&#xe620;" 
d="M930 364l-326 338q-37 39 -91 39t-91 -39l-35 -35q-8 8 -20 8h-176q-12 0 -20.5 -8.5t-8.5 -20.5v-213l-67 -69q-42 -44 -25.5 -83t77.5 -39h18v-377q0 -12 8.5 -20t20.5 -8h638q12 0 20 8t8 20v377h18q61 0 78 39t-26 83zM220 617h118v-1l-118 -123v124zM614 -106h-86
v205h86v-205zM803 -106h-131v234q0 12 -8.5 20t-20.5 8h-144q-12 0 -20.5 -8t-8.5 -20v-234h-247v348h580v-348zM878 300h-731q-16 0 -24 4q2 8 14 20l326 338q20 21 50 21t50 -21l326 -338q11 -12 13 -20q-7 -4 -24 -4z" />
    <glyph glyph-name="uniE621" unicode="&#xe621;" 
d="M553 43v-250h-41v247q-101 0 -186.5 50t-135 135.5t-49.5 186.5t49.5 186.5t135 135t186.5 49.5t186.5 -49.5t135 -135t49.5 -186.5q0 -143 -95 -248.5t-235 -120.5zM512 618q51 0 87.5 -36t36.5 -87.5t-36.5 -87.5t-87.5 -36v4q-18 6 -29.5 22t-11.5 35.5t11.5 35.5
t29.5 22v43q-36 -7 -59.5 -35.5t-23.5 -65.5t23.5 -65t59.5 -36v-2q68 0 116.5 48.5t48.5 117t-48.5 116.5t-116.5 48q-103 0 -175.5 -72.5t-72.5 -175t72.5 -175t175.5 -72.5t175 73l-29 29q-61 -61 -146 -61t-145.5 60.5t-60.5 146t60.5 146t145.5 60.5z" />
    <glyph glyph-name="uniE622" unicode="&#xe622;" horiz-adv-x="1030" 
d="M517 812q-104 0 -198.5 -40.5t-163 -109.5t-109.5 -163.5t-41 -198.5t41 -198.5t109.5 -163.5t163 -109.5t198.5 -40.5t198.5 40.5t163.5 109.5t109.5 163.5t40.5 198.5t-40.5 198.5t-109.5 163.5t-163.5 109.5t-198.5 40.5zM486 29l-35 -41l-41 36l-195 184l72 72
l153 -149l333 399l77 -66z" />
    <glyph glyph-name="uniE623" unicode="&#xe623;" 
d="M228 634v80q0 14 10 24t24 10t24 -10t10 -24v-80q0 -14 -10 -24t-24 -10t-24 10t-10 24zM591.5 600q14.5 0 24.5 10t10 24v80q0 14 -10 24t-24.5 10t-24 -10t-9.5 -24v-80q0 -14 9.5 -24t24 -10zM796 225h-34v79q0 10 -6.5 16.5t-16 6.5t-16 -6.5t-6.5 -16.5v-102
q0 -9 6.5 -16t16.5 -7h56q10 0 16.5 7t6.5 16t-6.5 16t-16.5 7zM933 208q0 -80 -56.5 -137t-136.5 -57q-57 0 -103.5 30t-70.5 78h-407q-23 0 -40 17t-17 40v421q0 24 17 40.5t40 16.5h46v-23q0 -23 16.5 -40t40 -17t40.5 17t17 40v23h216v-23q0 -23 16.5 -40t40 -17
t40.5 17t17 40v23h45q24 0 40.5 -16.5t16.5 -40.5v-200q76 -4 129 -59.5t53 -132.5zM524 496h-185v-52h129q-39 -46 -63 -102q-23 -56 -28 -117h59q0 27 6 58t17 62t28 58q16 27 37 45v48zM887 207.5q0 61.5 -43 105t-104.5 43.5t-104.5 -43.5t-43 -105t43 -104.5t104.5 -43
t104.5 43t43 104.5z" />
    <glyph glyph-name="uniE624" unicode="&#xe624;" 
d="M588 379q65 25 105.5 83t40.5 129q0 94 -66.5 160.5t-160.5 66.5t-160.5 -66.5t-66.5 -160.5q0 -72 41.5 -130t107.5 -83q-122 -28 -202 -127t-80 -227v-75h728v75q0 129 -81.5 229t-205.5 126zM512 61l-72 72l56 130q-8 9 -16 22t-11 22l-4 9q2 2 5 4.5t13 7.5t20 7
t25 -2.5t29 -15.5v-2q-12 -32 -29 -50l56 -132z" />
    <glyph glyph-name="uniE625" unicode="&#xe625;" 
d="M586 467h53v-51h-53v51zM586 548h53v-52h-53v52zM586 387h53v-55h-53v55zM670 387h56v-55h-56v55zM510 833q-91 0 -174 -35t-143 -95t-95 -143t-35 -174t35 -174t95 -143t143 -95t174 -35t174 35t143 95t95 143t35 174t-35 174t-95 143t-143 95t-174 35zM319 625h83
q29 0 45 2q-2 -20 -2 -55v-264q0 -34 2 -56h-39q2 20 2 55v286h-105v-288q0 -30 2 -53h-39q2 26 2 53v266q0 33 -3 55q25 -1 52 -1zM375 371q0 -78 -6 -114.5t-22 -65.5q-24 -43 -79 -84q-12 15 -29 28q33 22 51.5 40.5t30.5 43.5q19 39 19 152v102q0 51 -3 76h40
q-2 -26 -2 -75v-103zM418 136q-13 40 -41 86l31 17q25 -46 40 -81zM774 142q-71 55 -106 126q2 -25 2 -50v-48q0 -36 4 -60h-37q2 25 2 61v133h-53v-133q0 -44 2 -61h-38q5 24 5 60v43q0 26 1 53q-33 -74 -90 -123q-6 15 -21 27q42 31 73 78q13 22 29 56h-27q-31 0 -49 -3
v33q21 -2 49 -2h35v55h-41q-29 0 -54 -3v36q21 -4 54 -4h41v51h-25q-37 0 -55 -3v35q18 -3 55 -3h25v52h-37q-37 0 -55 -3v36q22 -3 57 -3h35q-13 25 -39 57l30 13q25 -34 45 -70h47q26 34 43 72l35 -13q-24 -38 -41 -59h50q32 0 58 3v-36q-30 3 -58 3h-55v-52h40q34 0 49 3
q-2 -18 -2 -51v-32q18 0 34 4v-36q-20 3 -34 3v-35q0 -33 2 -51q-18 3 -49 3h-32q21 -43 48 -72.5t72 -56.5q-14 -14 -24 -33zM670 467h56v-51h-56v51z" />
    <glyph glyph-name="uniE626" unicode="&#xe626;" 
d="M512 896q-140 0 -257.5 -68.5t-186 -186t-68.5 -257.5t68.5 -257.5t186 -186t257.5 -68.5t257.5 68.5t186 186t68.5 257.5t-68.5 257.5t-186 186t-257.5 68.5zM512 -49q-118 0 -218 57.5t-157.5 157.5t-57.5 218t57.5 218t157.5 157.5t218 57.5t218 -57.5t157.5 -157.5
t57.5 -218t-57.5 -218t-157.5 -157.5t-218 -57.5zM654 651l-142 -189l-142 189h-90l177 -236h-142v-79h158v-40h-158v-78h158v-118h78v118h158v78h-158v40h158v79h-142l177 236h-90z" />
    <glyph glyph-name="uniE627" unicode="&#xe627;" horiz-adv-x="1500" 
d="M2 359l176 196q36 12 66 -6l325 -259q5 -3 13 -6t28.5 -2t36.5 14l610 584q1 1 4 3t11.5 6t16.5 5.5t18.5 -0.5t19.5 -9l164 -165q2 -3 4.5 -8.5t2 -19t-10.5 -24.5l-808 -778q-2 -2 -5 -4.5t-13 -7t-21 -5.5t-27.5 3.5t-33.5 16.5l-567 435q-2 2 -4 4.5t-6 11.5t0 15z
" />
    <glyph glyph-name="uniE628" unicode="&#xe628;" 
d="M512 832q-91 0 -174 -35.5t-143 -95.5t-95.5 -143t-35.5 -174t35.5 -174t95.5 -143t143 -95.5t174 -35.5t174 35.5t143 95.5t95.5 143t35.5 174t-35.5 174t-95.5 143t-143 95.5t-174 35.5zM601 574l17 37q8 11 18 12t17 -4l6 -4l78 -130q6 -13 2 -20.5t-12 -11.5l-8 -3
l-144 -31q-22 -4 -31 3.5t-7 15.5l3 9l17 37q-60 22 -111 22.5t-81.5 -13.5t-52.5 -33t-30.5 -32t-8.5 -15q13 53 38 90t53 55.5t63.5 26.5t62.5 7.5t56 -5.5t39 -8t16 -5zM427 195l-16 -37q-7 -12 -17 -13t-17 3l-6 5l-82 128q-6 13 -2.5 20.5t11.5 11.5l8 3l143 35
q23 4 32 -3t6 -16l-2 -9l-16 -37q64 -23 112 -20.5t80.5 16t52.5 33.5t28.5 33.5t8.5 15.5q-36 -171 -195 -184q-66 -5 -129 15z" />
    <glyph glyph-name="uniE629" unicode="&#xe629;" 
d="M920 553q-3 3 -5 6q-3 4 -8 7l-2 2l-1 -1q-4 2 -9 2q-10 0 -17.5 -7t-7.5 -17q0 -13 11 -21q1 0 2 -1q6 -7 4.5 -14t-12.5 -17q-10 -9 -22 -16q-23 -13 -50 -19q-3 -1 -6 -1q-4 24 -12 48q-19 57 -58 99q-12 14 -25 25q4 5 8 12q15 24 30 43q25 32 45 46q19 12 26 8
q46 -29 58.5 -43t6.5 -31q-6 -21 -21 -34q-9 -10 -31 -24q-5 -3 -21.5 -14t-18.5 -13q-11 -7 -11 -20q0 -10 7 -17t17 -7q11 0 18 9q4 2 12 7t14.5 9t9.5 6q25 17 37 28q24 23 34 56q12 38 -6 64t-79 64q-35 22 -79 -9q-14 -9 -28 -24q-9 30 -51 53q-2 1 -5 2
q-34 18 -61 -19q-14 -19 -25 -55q-6 -20 -11 -44v-1q-40 3 -81 -7q-23 -2 -43 -24q-13 -14 -24 -27q-4 -5 -8 -9q-5 -6 -9 -11q-37 -48 -100 -158q-10 -18 -21 -37q-4 -8 -33 -60t-55.5 -99t-31.5 -56q-26 -42 -44 -83q-1 -1 -1 -2q-6 -13 -11 -23q-1 -1 -5 -8l-3 -6
q-5 -10 -8 -17q-16 -34 -8 -56q12 -33 65 -33q79 0 284.5 104.5t324.5 196.5q4 3 7 6q15 14 22 29l2 5q2 9 4 23q5 40 3 79q38 7 73 27q17 10 30 21q27 23 30 50t-16 48zM624 671q4 22 10 40q8 28 17 41l3 3q1 0 2 -1q28 -15 28 -23q6 -5 17 -5q5 0 9 1t5 2l2 1
q-7 -8 -15 -17q-16 -21 -32 -47q-4 -5 -8 -11q-19 10 -38 16v0zM752 334q-1 -9 -2 -15q-4 -6 -11 -13q-2 -1 -4 -3q-60 -46 -161 -107l-1 1l-57 96q-6 15 -23 15q-10 0 -17 -7t-7 -17q0 -8 5 -14l58 -98q-118 -67 -224.5 -113.5t-151.5 -46.5h-8q-4 0 -6 0.5t-3.5 0.5
t-2.5 1q-1 3 6 19l7 14l3 7q4 6 5 7l13 26q0 1 1 3q16 38 41 77q8 13 64 115l73 -90q8 -9 20 -9q10 0 17 7t7 17q0 9 -6 16l-86 104q28 50 32 56q11 20 21 37q39 69 67 112l3 -5l81 -134q6 -15 23 -15q10 0 17 7t7 17q0 5 -2 10l-12 21l-86 142q8 11 36 41q4 4 6 7q6 2 14 4
q73 18 134 -16q27 -15 50 -40q31 -35 47 -83q24 -70 13 -154zM752 334z" />
    <glyph glyph-name="uniE62A" unicode="&#xe62a;" 
d="M542.5 610q-35.5 0 -61 25.5t-25.5 60.5t25.5 60.5t61 25.5t60.5 -25.5t25 -60.5t-25 -60.5t-60.5 -25.5zM542 752q-23 0 -39.5 -16.5t-16.5 -39.5t16.5 -39.5t39.5 -16.5t39.5 16.5t16.5 39.5t-16.5 39.5t-39.5 16.5zM580 263l-10 4q-5 2 -5 -4v-51q0 -6 6 -5q17 1 24 7
q8 5 10 14.5t-3 18.5q-6 9 -22 16zM527 374q-14 -3 -21.5 -8.5t-8.5 -15.5t4 -18q3 -4 8 -7.5t8 -5.5l4 -1l6 -3q1 0 3 1t2 3v51q0 5 -5 4zM957 452q-6 11 -17 4q-4 -2 -10 -3v1v1q11 15 11 29q0 10 -4.5 18.5t-12.5 15.5q-13 12 -28 12q-18 0 -30 -14q-11 -13 -11 -31
q0 -11 5 -21q6 -14 20 -23q-4 -3 -10 -7q-19 52 -60.5 90t-87.5 57t-99 29q22 -28 28 -57q11 -2 20 -5q7 -3 9.5 -9t0.5 -12t-8 -9t-13 -1v0q-1 1 -3 1q-7 2 -14 3q-27 5 -62 5q-13 0 -27 -1q-69 -3 -109 -26q-14 -8 -22 5q-3 6 -1.5 12.5t6.5 9.5q8 5 19 9q-2 16 4 36
t19 31q-82 -24 -152 -72q-20 24 -44 37.5t-37 14.5l-14 1q12 -35 30 -104q-16 -13 -37.5 -32.5t-34.5 -30t-20 -14.5q-17 -10 -28.5 -15.5t-15.5 -6.5l-3 -1q-32 3 -41.5 -9.5t-9.5 -41.5l24 -73q26 -64 70 -64l34 -10q39 -39 89 -66.5t76 -32.5l-9 -59q0 -9 5 -15t13 -6h74
q10 0 31 53q45 -10 81 -10q57 0 101 11l17 -36q0 -9 5 -15t13 -6h58q8 0 13 6t5 15l31 103q92 77 96 180q2 57 -12 107q16 9 29 20q8 -2 16 -2q17 0 29 7q11 6 5 17zM234.5 319q-7.5 0 -13 11t-5.5 26.5t5.5 26.5t13 11t13 -11t5.5 -26.5t-5.5 -26.5t-13 -11zM619 197
q-5 -5 -17 -8.5t-22 -5.5l-9 -1q-6 -1 -6 -7v-9q0 -5 -5 -5h-22q-6 0 -6 5v11q0 5 -5 7q-51 12 -63 29q-3 5 2 12t12.5 9t12.5 -3q0 -1 1 -2l2 -2l2 -2q12 -9 25 -13l6 -1q5 -2 5 4v62q0 5 -5 7q-27 12 -32 14q-16 7 -24 22t-4.5 31.5t18.5 28.5q5 5 15.5 9.5t18.5 6.5l8 3
q5 1 5 7v10q0 6 6 6h22q5 0 5 -6v-10q0 -5 6 -6l12 -2q33 -8 48 -28q3 -6 -2 -13t-12.5 -8.5t-12.5 3.5q0 1 -1 2t-2 1q-2 2 -2 3q-14 10 -25 13l-3 1q-6 2 -6 -4v-62q0 -5 5 -7q60 -21 68 -43q6 -16 1 -32t-20 -27zM910 468q-3 -4 -9 -10h-1h-1q-12 6 -17 17q-2 5 -2 10
q0 9 5 14q5 6 11 6t11 -6q5 -4 7 -8q2 -3 2 -7q0 -7 -6 -16zM465 508q14 5 30 9q0 23 16.5 39t38.5 16q21 0 36.5 -13.5t18.5 -33.5q17 -1 31 -3q-3 34 -27.5 57t-58.5 23q-35 0 -60 -25.5t-25 -60.5v-8z" />
    <glyph glyph-name="uniE62B" unicode="&#xe62b;" 
d="M495 229l2 -107q17 -2 20 -2t6.5 0.5t5.5 0.5l1 99q-2 1 -5.5 2t-4.5 1q-9 2 -25 6zM426 356q-1 -13 6 -23q4 -5 9 -9l3 65q-17 -15 -18 -33zM510 406h-4q-3 0 -5.5 -0.5t-4.5 -0.5l-2 -101q9 -3 23 -6q2 -1 6.5 -2t6.5 -2v110q-16 2 -20 2zM746 532q-14 14 -49.5 40.5
t-62 49t-29.5 34.5q-1 3 -3 8q15 2 15 13q0 5 -5 8.5t-12 3.5h-1q1 11 20 46t33 82q-30 10 -49 13.5t-35 0t-24.5 -7.5t-29.5 -16.5t-37 -20.5q-16 -3 -28.5 2t-19.5 14t-18 16t-23.5 8t-34.5 -10q19 -42 44 -78.5t28 -48.5q-14 -2 -14 -12.5t14 -12.5v-4
q-4 -13 -30.5 -35.5t-64 -50t-52.5 -42.5q-20 -19 -43.5 -59.5t-43.5 -94t-34 -112t-12.5 -115.5t18 -102.5t61 -75t112.5 -31.5l176 -6q20 0 176 6q68 2 112.5 31.5t61 75t18 102.5t-12.5 115.5t-34 112t-43.5 94t-43.5 59.5zM660 185q-3 -28 -21 -52q-19 -24 -50 -38
q-2 -1 -4.5 -2t-6 -1.5t-5.5 -1.5l-2 -35q0 -7 -6.5 -12t-15.5 -5.5t-15.5 4.5t-5.5 12v28q-2 0 -5.5 -0.5t-5.5 -0.5q-6 0 -19 1l1 -28q0 -7 -6 -12t-15 -4.5t-15.5 5.5t-6.5 13l-3 35q-22 7 -36 18q-35 26 -51 83q-1 11 6 19t18 7q12 -1 21 -10.5t10 -21.5q6 -27 28 -45
l-7 106q-14 5 -23 10q-26 15 -38 38t-10 50q1 24 12.5 44.5t30.5 35.5q12 9 34 17l3 38q1 8 8 14t16.5 6.5t16 -5t6.5 -12.5l-1 -32q1 1 4 1h5q6 0 23 -1l-1 32q0 8 6.5 13t16 4.5t16.5 -6t8 -13.5l3 -41h2q1 0 2 -1q32 -13 48 -34q15 -20 23 -61q1 -12 -6.5 -21t-19.5 -8
q-12 0 -21 9.5t-10 22.5q-3 16 -14 30l2 -99q21 -7 32 -12q24 -11 36 -31q11 -21 8 -50zM587 203q-1 1 -5 3l-5 -71l1 1h1q21 16 23 37q2 20 -15 30z" />
    <glyph glyph-name="uniE62C" unicode="&#xe62c;" 
d="M512 -128q-139 0 -257 68.5t-186.5 186.5t-68.5 257t68.5 257t186.5 186.5t257 68.5t257 -68.5t186.5 -186.5t68.5 -257t-68.5 -257t-186.5 -186.5t-257 -68.5zM768 448h-192v192q0 26 -19 45t-45 19t-45 -19t-19 -45v-192h-192q-26 0 -45 -19t-19 -45t19 -45t45 -19h192
v-192q0 -26 19 -45t45 -19t45 19t19 45v192h192q26 0 45 19t19 45t-19 45t-45 19z" />
    <glyph glyph-name="uniE62D" unicode="&#xe62d;" 
d="M925 443l-27 -118q0 1 -7 -59l-14 -118q-7 -60 -6.5 -59.5t-13 0.5t-26.5 -0.5t-13 -1.5q-37 36 -88 36q-36 0 -66 -18.5t-47 -48.5h-405l-40 68l-82 134l-40 67v80h-27v54h498h55h241h41h30l62 216l49 7zM578 486q10 43 43.5 75.5t75 32.5t75 -32.5t42.5 -75.5h-236z
M166 745q-2 3 -3 4q-29 35 23 78q49 40 79 5q0 -1 2 -4l160 -275l-19 -12zM164 734h1l245 -208l-14 -18l-299 111v1q-3 1 -4 2q-11 6 -15.5 14t-1 20t7.5 19.5t13 23.5q8 13 11.5 18.5t10 13.5t12 10t13.5 1.5t17 -5.5zM93 610q1 0 4 -1l307 -108l-6 -23l-323 -5h-4
q-25 4 -30 27.5t2 51.5q5 33 15 47.5t35 10.5zM272 42q25 0 43 -17.5t18 -43t-18 -43t-43 -17.5t-42.5 17.5t-17.5 43t17.5 43t42.5 17.5zM730 96q36 0 61.5 -25.5t25.5 -62t-25.5 -62t-61.5 -25.5t-62 25.5t-26 62t26 62t62 25.5z" />
    <glyph glyph-name="uniE62E" unicode="&#xe62e;" 
d="M878 774h-732q-60 0 -103 -43t-43 -103v-35h1024v35q0 60 -43 103t-103 43zM0 140q0 -60 43 -103t103 -43h732q60 0 103 43t43 103v355h-1024v-355zM680 401l88 -105l88 105h70l-123 -146h75q5 0 8.5 -3.5t3.5 -8.5v-25q0 -5 -3.5 -8.5t-8.5 -3.5h-34h-52v-24h86
q5 0 8.5 -3.5t3.5 -7.5v-26q0 -5 -3.5 -8t-8.5 -3h-85v-37q0 -5 -3.5 -8.5t-8.5 -3.5h-26q-4 0 -7.5 3.5t-3.5 8.5v37h-85q-6 0 -9.5 3t-3.5 8v26q0 5 3.5 8t9.5 3h85v24h-51h-34q-6 0 -9.5 3.5t-3.5 8.5v25q0 5 3.5 8.5t9.5 3.5h74l-123 146h70z" />
    <glyph glyph-name="uniE62F" unicode="&#xe62f;" 
d="M878 774h-732q-60 0 -103 -43t-43 -103v-35h1024v35q0 60 -43 103t-103 43zM0 140q0 -60 43 -103t103 -43h732q60 0 103 43t43 103v355h-1024v-355zM690 274h244l-99 -170h-243z" />
    <glyph glyph-name="uniE630" unicode="&#xe630;" horiz-adv-x="1026" 
d="M924 894h-771q-43 0 -72.5 -27.5t-29.5 -65.5v-102q-24 -7 -37 -27q-14 -22 -14 -60v-1v-1v-1q1 -32 12 -52t31 -28v-53q-20 -9 -31 -29q-11 -19 -12 -47v-5v-1v-1v-1q0 -34 12 -55q11 -20 31 -28v-53q-20 -9 -31 -28q-12 -22 -12 -56v-7v-1v-5q1 -29 8 -47
q12 -30 43 -37v-109q0 -39 29.5 -66.5t72.5 -27.5h771q42 0 72 27.5t30 66.5v835q0 38 -30 65.5t-72 27.5zM843 264h-268v-141q0 -10 -6.5 -16.5t-16.5 -6.5q-9 0 -16 6.5t-7 16.5v141h-267q-10 0 -16.5 6.5t-6.5 16t6.5 16.5t16.5 7h267v117h-253q-9 0 -16 6.5t-7 16
t7 16.5t16 7h218l-160 147q-6 6 -6.5 15.5t6 16.5t16 7.5t16.5 -6.5l186 -172l188 172q7 7 16.5 6.5t16 -7.5t6 -16.5t-7.5 -15.5l-160 -147h222q9 0 16 -7t7 -16.5t-7 -16t-16 -6.5h-258v-117h268q9 0 16 -7t7 -16.5t-7 -16t-16 -6.5z" />
    <glyph glyph-name="uniE631" unicode="&#xe631;" 
d="M512 896q-139 0 -257 -68.5t-186.5 -186.5t-68.5 -257t68.5 -257t186.5 -186.5t257 -68.5t257 68.5t186.5 186.5t68.5 257t-68.5 257t-186.5 186.5t-257 68.5zM871 260q-28 -66 -79 -116.5t-116 -78.5q-68 -29 -143 -29q-135 0 -238 88q-9 8 -9.5 19.5t6.5 19.5
q8 10 21 10q10 0 18 -7q87 -75 202 -75q129 0 220 91.5t91 220t-91 219.5t-220 91q-111 0 -197.5 -71.5t-107.5 -180.5l50 43q8 7 18 7q12 0 21 -9q7 -9 6.5 -20.5t-9.5 -18.5l-105 -92q-2 -2 -4 -3v0q-1 -1 -2 -1h-1v0l-1 -1h-1q-1 -1 -2 -1v0h-2q-2 -1 -3 -1v0h-2h-1v0h-1
h-1h-1v0q-1 1 -2 1v0h-2v0l-2 1q-2 1 -3 1v1h-2v1l-1 1h-1l-1 1l-1 1v0h-1v1l-1 1q-1 0 -1 1l-1 1v1q-1 1 -1 2q-1 1 -1 2l-57 127q-5 10 -0.5 21t14.5 15q5 3 11 3q18 0 25 -17l19 -41q7 29 18 56q28 65 78.5 115.5t116.5 78.5q68 29 142.5 29t142.5 -29
q66 -28 116.5 -78.5t78.5 -115.5q28 -68 28 -142.5t-28 -142.5zM666 493q7 0 7 -6v-54q0 -7 -7 -7h-100v-44h100q7 0 7 -6v-54q0 -7 -7 -7h-100v-100q0 -13 -9.5 -23t-23.5 -10t-23.5 10t-9.5 23v100h-100q-7 0 -7 7v54q0 6 7 6h100v44h-100q-7 0 -7 7v54q0 6 7 6h53l-54 54
q-10 10 -10 24t9.5 23.5t23.5 9.5t24 -10l87 -87l88 87q10 10 23.5 10t23.5 -9.5t10 -23.5t-10 -24l-54 -54h52z" />
    <glyph glyph-name="uniE632" unicode="&#xe632;" 
d="M77.5 50q-21.5 0 -37 -15.5t-15.5 -37.5v-72q0 -22 15.5 -37.5t37 -15.5t37 15.5t15.5 37.5v72q0 22 -15.5 37.5t-37 15.5zM293.5 147q-21.5 0 -36.5 -15.5t-15 -36.5v-170q0 -22 15 -37.5t36.5 -15.5t37 15.5t15.5 37.5v170q0 21 -15.5 36.5t-37 15.5zM513.5 250
q-21.5 0 -37 -15.5t-15.5 -36.5v-273q0 -22 15.5 -37.5t37 -15.5t37 15.5t15.5 37.5v273q0 21 -15.5 36.5t-37 15.5zM727.5 399q-21.5 0 -37 -15.5t-15.5 -37.5v-421q0 -22 15.5 -37.5t37 -15.5t37 15.5t15.5 37.5v421q0 22 -15.5 37.5t-37 15.5zM947 616q-22 0 -37 -15.5
t-15 -37.5v-638q0 -22 15 -37.5t37 -15.5t37 15.5t15 37.5v638q0 22 -15 37.5t-37 15.5zM867 700l58 -26l4 -2q13 -6 26 -1t19 18q7 15 -1 30v1l-53 154q-5 13 -17.5 19t-25.5 1l-149 -63q-4 -1 -6 -3q-12 -5 -17 -17q-6 -13 -0.5 -26.5t18.5 -18.5q1 -1 4 -2l55 -25
q-22 -39 -51.5 -78t-89.5 -96.5t-132.5 -104.5t-184.5 -92.5t-241 -70.5l-6 -2h-1v0q-14 -4 -22.5 -15.5t-8.5 -26.5q0 -18 12.5 -30.5t30.5 -12.5q9 0 17 3q14 3 38 8.5t92 26t129 43t133 58.5t120 74q104 84 162 148t88 129z" />
    <glyph glyph-name="uniE633" unicode="&#xe633;" 
d="M280 358h163v-50h-163v50zM318 498h87v-59h-87v59zM280 289h163v-51h-163v51zM512 896q-139 0 -257 -68.5t-186.5 -186.5t-68.5 -257t68.5 -257t186.5 -186.5t257 -68.5t257 68.5t186.5 186.5t68.5 257t-68.5 257t-186.5 186.5t-257 68.5zM197 199h-21v235
q-22 -42 -46 -73q-5 13 -12 24q60 80 92 184l20 -7q-22 -64 -48 -116h15v-247zM467 199h-24v21h-163v-21h-24v176h5h19h163h15h9v-176zM494 420h-264v19h64v59h-51v20h51v49h24v-49h87v51h24v-51h54v-20h-54v-59h65v-19zM731 418q-6 15 -14 30q-37 -155 -170 -239
q-8 11 -17 21q136 81 168 243v11q-26 41 -56 69l16 13q52 -40 92 -135q63 -142 156 -195q-12 -11 -23 -24q-91 62 -152 206z" />
    <glyph glyph-name="uniE634" unicode="&#xe634;" 
d="M527 648h62q-3 10 -3 30q0 56 34.5 99t86.5 52h2q14 0 22.5 9t8.5 22.5t-8.5 22t-22.5 8.5q-77 -12 -129.5 -72.5t-52.5 -142.5q-1 -4 -1 -8.5t0.5 -10.5t0.5 -9v0zM527 648zM348 870q63 0 107 -28t44 -66.5t-44 -66.5t-107 -28t-107 28t-44 66.5t44 66.5t107 28v0z
M348 870zM691 625q-42 0 -179 -64q-137 64 -182 64q-81 0 -138 -43t-82.5 -112t-25.5 -158q0 -34 8 -69q25 -157 143 -262.5t274 -105.5q157 0 275 104.5t143 261.5q10 46 10 71q1 88 -25 157.5t-83 112.5t-138 43v0zM389 476q-45 -23 -75.5 -64t-39.5 -92q0 -13 -8.5 -22
t-22 -9t-22.5 9t-9 22v8q12 68 53 121.5t101 82.5q5 3 13 3q13 0 22 -8.5t9 -22.5q3 -18 -21 -28v0zM389 476z" />
    <glyph glyph-name="uniE635" unicode="&#xe635;" 
d="M512 896q-139 0 -257 -68.5t-186.5 -186.5t-68.5 -257t68.5 -257t186.5 -186.5t257 -68.5t257 68.5t186.5 186.5t68.5 257t-68.5 257t-186.5 186.5t-257 68.5zM512 687q29 0 49.5 -17.5t20.5 -41.5t-20.5 -41t-49.5 -17t-49.5 17t-20.5 41t20.5 41.5t49.5 17.5zM605 105
h-186v23h46v349h-46v23h140v-372h46v-23z" />
    <glyph glyph-name="uniE636" unicode="&#xe636;" 
d="M123 680v-561q9 6 24.5 15t64.5 24.5t98 15.5t95.5 -14t68.5 -27l23 -14v554q-4 3 -9.5 7.5t-25 15.5t-40 19t-51 15t-61.5 7q-49 0 -95.5 -14t-69.5 -28zM525 680v-561q9 6 25 15t64.5 24.5t97.5 15.5t95.5 -14t68.5 -27l23 -14v554q-3 3 -9 7.5t-25.5 15.5t-39.5 19
t-51 15t-62 7t-61.5 -6t-52 -14t-38.5 -16.5t-26 -14.5zM66 624h28v-537h345v-28h144v28h345v537h28v-565h-344l1 -28h-203v28h-344v565z" />
    <glyph glyph-name="uniE637" unicode="&#xe637;" 
d="M341 245q0 73 28 140h-212q-6 0 -6 6v69q0 6 6 6h235q6 0 6 -6v-21q43 69 112 112h-353q-6 0 -6 5v70q0 6 6 6h427q6 0 6 -6v-38q54 18 111 18q13 0 25 -1v192q0 11 -7.5 19t-19.5 8h-657q-11 0 -19 -8t-8 -19v-825q0 -11 8 -19t19 -8h460q-74 50 -117.5 129t-43.5 171z
M289 225q0 -6 -6 -6h-126q-6 0 -6 6v70q0 6 6 6h126q6 0 6 -6v-70zM701.5 546q-124.5 0 -213 -88t-88.5 -212.5t88.5 -213t213 -88.5t213 88.5t88.5 213t-88.5 212.5t-213 88zM821 262v-39h-95v-53h95v-40h-95v-78h-49v78h-99v40h99v53h-99v39h83l-91 166h55q3 -5 38.5 -78
t36.5 -76l81 154h52l-94 -166h82z" />
    <glyph glyph-name="uniE638" unicode="&#xe638;" 
d="M330 870q-57 0 -110.5 -17t-87 -38t-63 -49t-38.5 -39.5t-15 -20.5q-12 -19 3 -37l217 -255q0 -1 2 -2l2 -1l-51 -461q-6 -23 10 -43q28 -35 75 -35h138q30 0 53.5 19.5t23.5 49.5q0 32 -51 472v1l2 1l206 257q15 18 2 37q-6 8 -15.5 19.5t-39.5 39t-64 48t-88 37.5
t-111 17zM271 468l-28 113q-3 13 4 24t19 14t23 -4t14 -19l31 -128h-63zM290 306l6 42h85l11 -42h-102zM422 583l-21 -115h-63l23 126q2 13 12.5 20t23.5 5t20 -12.5t5 -23.5zM947 471h-13v331q0 41 -8 54.5t-24 13.5q-26 0 -74 -39q-17 -14 -50 -35q-17 -11 -28.5 -24.5
t-16 -30.5t-5.5 -24t-2 -23v-223h-20q-18 0 -32.5 -13t-14.5 -30v-505q0 -20 9 -35.5t26 -15.5h265q17 0 29.5 16t12.5 35v505q0 17 -18 30t-36 13zM909 41q0 -12 -12 -21.5t-26 -9.5q-12 0 -21.5 9t-9.5 22v280q0 13 9.5 22t21.5 9q14 0 26 -9.5t12 -21.5v-280z" />
    <glyph glyph-name="uniE639" unicode="&#xe639;" 
d="M959 22l-85 -85l-362 362l-362 -362l-85 85l362 362l-362 362l85 85l362 -362l362 362l85 -85l-362 -362z" />
    <glyph glyph-name="uniE63A" unicode="&#xe63a;" 
d="M337 318h64v-213h-64v213zM443 -45v427h-401q0 -20 -2.5 -61.5t-4 -81.5t-3 -88.5t2 -89t10.5 -75t22.5 -54t37.5 -19.5h275q21 0 31 2.5t13 5.5t7.5 14t11.5 20zM337 744q8 -2 21 -5t17 -4.5t11 -5t9 -9.5t4 -15.5t2 -24.5v-106q0 -15 -2 -25t-4 -15.5t-9 -9.5t-11 -5.5
t-17 -4t-21 -4.5v234zM42 787v-341h422v341q0 37 -23.5 61t-60.5 24h-254q-37 0 -60.5 -24t-23.5 -61zM928 169q0 -37 -13.5 -50.5t-49.5 -13.5h-232q-37 0 -50 13.5t-13 50.5v85q0 37 13 50.5t50 13.5h232q36 0 49.5 -13.5t13.5 -50.5v-85zM548 41h85l-21 -64h-42v-64
l344 3l-49 125h63q37 0 50.5 13.5t13.5 50.5v213q0 37 -13.5 50.5t-50.5 13.5h-358q-37 0 -50.5 -13.5t-13.5 -50.5v-213q0 -23 2.5 -33t6 -12.5t14 -7t19.5 -11.5z" />
    <glyph glyph-name="uniE63B" unicode="&#xe63b;" 
d="M399 829l152 -215l-231 1l-99 130q-3 4 0 8t8 3l113 -22q7 -2 8 5l37 87q1 5 5.5 5.5t6.5 -2.5zM680 830l-143 -122l70 -94h98l82 70q4 4 2.5 8.5t-6.5 5.5l-101 13q-6 0 -5 6l16 105q1 6 -4 9t-9 -1zM483 366h-354v-370q0 -24 17 -41t41 -17h296v428zM541 366v-428h295
q24 0 41 17t17 41v370h-353zM901 561h-360v-143h360q24 0 41 17t17 41v27q0 24 -17 41t-41 17zM483 561h-361q-24 0 -41 -17t-17 -41v-27q0 -24 17 -41t41 -17h361v143z" />
    <glyph glyph-name="uniE63C" unicode="&#xe63c;" horiz-adv-x="1197" 
d="M0 590v-48h1q7 -174 105 -315t253 -209v-2h24v-48q0 -40 28 -68t68 -28h239q40 0 68 28t28 68v48h19q157 67 256.5 209t106.5 317h1v48h-1197v0zM932 614l205 205q8 9 0 17l-17 17q-9 9 -17 0l-239 -239h68zM895 866q5 10 -5 16l-21 12q-10 6 -16 -4l-159 -276h55z
M895 866z" />
    <glyph glyph-name="uniE63D" unicode="&#xe63d;" 
d="M9 385.5q0 -102.5 39.5 -196t107 -160.5t161 -107t195.5 -40t195.5 40t161 107t107 160.5t39.5 196t-39.5 195.5t-107 160.5t-161 107t-195.5 39.5t-195.5 -39.5t-161 -107t-107 -160.5t-39.5 -195.5zM524 90q-35 -47 -66 -47q-9 0 -25 7q-15 7 -35 20q43 30 71 70
q28 39 40 88q30 -20 40 -32t10 -25q0 -35 -35 -81zM722 739q43 -16 56 -30.5t13 -40.5q0 -44 -21 -87t-44 -43q-9 0 -24 4q-14 4 -38 12q28 35 43 83t15 102zM600 756q25 5 60 5q23 0 30 -8t7 -31q0 -27 -11 -67q-12 -39 -27 -65q-16 -25 -49 -29q-11 -1 -15 -3
q-19 -6 -38 -30q-17 -23 -47 -83q-13 -27 -32.5 -83.5t-19.5 -68.5q0 -17 14.5 -34t14.5 -22q0 -8 -12 -37q-13 -29 -29 -52q-21 -27 -42 -45q-21 -17 -31 -17q-7 0 -14 4l-19 14l-26 29q-15 25 -18 34q-5 13 -5 24q0 58 42 175q42 116 108 220q36 56 70.5 100t50.5 55
q13 9 38 15z" />
    <glyph glyph-name="uniE63E" unicode="&#xe63e;" 
d="M947 563q-15 67 -53.5 114.5t-89 66.5t-104 17t-104 -32t-84.5 -83q-52 64 -119.5 92t-130 18.5t-115.5 -59.5t-77 -134q-4 -25 -4.5 -46t6 -52t23.5 -61.5t49.5 -73t80.5 -89t120.5 -106.5t166.5 -129q95 68 168.5 129t121.5 107.5t80 90t48 74t21.5 61.5t4 51t-8.5 44z
M698 333h-141v-147h-90v147h-141v83h148v147h83v-147h147v-83h-6z" />
    <glyph glyph-name="uniE63F" unicode="&#xe63f;" 
d="M511 851l-466 -400h133v-532h666v532h133zM667 331v-56h-113v-56h113v-56h-113v-84h-85v84h-113v56h113v56h-113v56h56l-85 197h85l85 -197h28l85 197h85l-85 -197h57z" />
    <glyph glyph-name="uniE640" unicode="&#xe640;" horiz-adv-x="1600" 
d="M1331 51l90 90l-589 589l-90 89l-89 -89l-231 -224l-313 313l-90 -89l314 -314l89 -90l90 90l230 224zM1555 282l-365 -365l410 -45z" />
    <glyph glyph-name="uniE641" unicode="&#xe641;" 
d="M798 101h-581q-65 0 -108.5 46.5t-43.5 115.5q0 59 31.5 102t83.5 56q12 63 62 104t115 41q39 0 74 -15q33 54 88 85t119 31q99 0 170 -71t71 -172q0 -10 -1 -20q38 -22 59.5 -59.5t21.5 -81.5q0 -67 -47 -114.5t-114 -47.5z" />
    <glyph glyph-name="uniE642" unicode="&#xe642;" 
d="M725.5 457q-37.5 0 -64 -26.5t-26.5 -64t26.5 -64t64 -26.5t64 26.5t26.5 64t-26.5 64t-64 26.5zM508.5 240q-37.5 0 -64 -26.5t-26.5 -64t26.5 -64t64 -26.5t64 26.5t26.5 64t-26.5 64t-64 26.5zM472 366q0 -15 10.5 -25.5t25.5 -10.5t26 10.5t11 25.5t-11 25.5
t-26 10.5t-25.5 -10.5t-10.5 -25.5zM508.5 674q-37.5 0 -64 -26.5t-26.5 -64t26.5 -64t64 -26.5t64 26.5t26.5 64t-26.5 64t-64 26.5zM290.5 457q-37.5 0 -64 -26.5t-26.5 -64t26.5 -64t64 -26.5t64 26.5t26.5 64t-26.5 64t-64 26.5zM743 22h95q13 0 22.5 -10.5t9.5 -25.5
t-9.5 -25.5t-22.5 -10.5h-317h-4h-4h-5q-113 0 -209 55.5t-151.5 151.5t-55.5 209t55.5 209t151.5 152t209.5 56t209 -56t151.5 -152t56 -209q0 -105 -49 -196t-133 -148z" />
    <glyph glyph-name="uniE643" unicode="&#xe643;" horiz-adv-x="1033" 
d="M841 254q-6 101 -64 185l-247 359q-15 21 -42 22q-26 0 -41 -22l-248 -359q-58 -84 -64 -185q-5 -96 37 -183q40 -83 113 -135q78 -56 176 -63h27h27q98 7 176 63q73 52 113 135q42 87 37 183zM750 97q-34 -69 -94 -112q-64 -46 -145 -51q-23 -2 -46 0q-81 5 -145 51
q-60 43 -94 113q-35 72 -30 152q5 85 53 155l239 346l239 -346q48 -71 53 -155q5 -80 -30 -153zM643 325h-145q-5 0 -8 4t-2 8l23 135q2 7 -5 10.5t-12 -2.5l-198 -243q-4 -5 -1 -11t9 -6h151q5 0 8 -3.5t2 -8.5l-22 -125q-1 -8 6 -11t12 3l190 234q4 5 1 10.5t-9 5.5z" />
    <glyph glyph-name="uniE644" unicode="&#xe644;" 
d="M674 573v60h-177v-96h145q34 -3 32 36zM950 785l-80 69l-17 -8q-47 -24 -96.5 -33.5t-85.5 -8t-70.5 10.5t-50.5 16t-28 14l-14 8l-14 -8q-12 -7 -28 -14t-50.5 -16t-70.5 -10.5t-85.5 8t-96.5 32.5l-17 9l-80 -69l10 -20q52 -104 52 -173q0 -15 -11 -71
q-24 -122 -24 -188q0 -198 157 -252q188 -64 235 -133l23 -34l23 34q47 69 235 133q157 54 157 252q0 68 -24 188v1q-11 56 -11 70q0 69 52 173zM366 174h-68v328q-14 -11 -53 -25q1 0 0 -1q-2 0 -5 -1v43q78 51 99 179h69q-16 -76 -42 -126v-397zM779 390h-73
q11 -87 71 -144v-44q-122 55 -133 188h-25v-216h-71v216h-26q-11 -135 -133 -188v44q62 57 71 144h-73v48h161v50h-120v193h314v-112q3 -83 -80 -81h-43v-50h160v-48z" />
    <glyph glyph-name="uniE645" unicode="&#xe645;" 
d="M192 620l163 164l481 -481l-480 -480l-164 164l316 316zM192 -13l164 -164z" />
    <glyph glyph-name="uniE646" unicode="&#xe646;" 
d="M672 865q40 35 68 22t28 -66v-808q0 -54 -29 -67.5t-71 20.5l-429 350q-41 34 -42 82.5t39 83.5z" />
    <glyph glyph-name="uniE647" unicode="&#xe647;" 
d="M795 329l-452 -434q-19 -18 -43.5 -21.5t-45 4.5t-35 27.5t-14.5 44.5v868q0 25 14.5 44.5t35 27.5t45 4.5t43.5 -21.5l452 -434q23 -23 23 -55t-23 -55z" />
  </font>
</defs>
</svg>
