<svg id="svg" width="16.662" xmlns="http://www.w3.org/2000/svg" height="16.014" viewBox="0 0 16.662 16.014" xmlns:xlink="http://www.w3.org/1999/xlink" enable-background="new 0 0 16.662 16.014">
<path d="m13.365,0h-10.068l-3.297,4.785 8.331,11.229 8.331-11.229-3.297-4.785zm1.848,4.41h-3.4l1.298-3.054 2.102,3.054zm-2.687-3.431l-1.342,3.156-2.113-3.156h3.455zm-1.982,3.431h-4.102l1.909-3.273 2.193,3.273zm-2.896-3.431l-1.792,3.075-1.671-3.075h3.463zm-4.064,.331l1.685,3.1h-3.82l2.135-3.1zm-2.134,3.787h4.124l1.95,8.184-6.074-8.184zm4.829-0h4.548l-2.468,8.732-2.08-8.732zm3.001,7.992l2.259-7.992h3.672l-5.931,7.992z"/>
</svg>
