<?xml version="1.0" encoding="utf-8"?>
<!-- Generator: Adobe Illustrator 16.0.4, SVG Export Plug-In . SVG Version: 6.00 Build 0)  -->
<!DOCTYPE svg PUBLIC "-//W3C//DTD SVG 1.1//EN" "http://www.w3.org/Graphics/SVG/1.1/DTD/svg11.dtd">
<svg version="1.1" id="svg" xmlns="http://www.w3.org/2000/svg" xmlns:xlink="http://www.w3.org/1999/xlink" x="0px" y="0px"
	 width="40px" height="40px" viewBox="0 0 40 40" enable-background="new 0 0 50 50" xml:space="preserve">
<g>
	<path d="M7.052,19.445c0,0.57,0.462,1.031,1.032,1.031c0.568,0,1.029-0.461,1.029-1.031c0-0.569-1.029-2.377-1.029-2.377
		S7.052,18.876,7.052,19.445z"/>
	<path d="M10.898,23.54v0.894h9.281V23.54h-1.193v-9.979h-6.895v8.119h-1.156v-5.855l-0.004-0.447h-0.439H8.424l-0.691,0.889
		l0.703,0.551l0.424-0.545h1.184v6.301h2.051v0.97h-1.195V23.54z M13.622,15.105h3.838v2.865h-3.838V15.105z"/>
	<path d="M42.948,30.812h-1.063V26.98h-2.227l-3.105-5.36H23.841l-3.104,5.36h-6.309v3.832h-0.812v2h0.812v1.375h4.446
		c0.235,1.279,1.356,2.252,2.706,2.252c1.348,0,2.467-0.973,2.703-2.252H32.6c0.236,1.279,1.355,2.252,2.702,2.252
		c1.349,0,2.47-0.973,2.705-2.252h3.876v-1.375h1.062v-2H42.948z M21.581,35.439c-0.97,0-1.757-0.785-1.757-1.752
		s0.787-1.756,1.757-1.756c0.967,0,1.754,0.788,1.754,1.756C23.335,34.654,22.548,35.439,21.581,35.439z M35.305,35.439
		c-0.968,0-1.754-0.785-1.754-1.752s0.786-1.756,1.754-1.756c0.967,0,1.756,0.788,1.756,1.756
		C37.061,34.654,36.271,35.439,35.305,35.439z M40.885,33.188h-2.876c-0.235-1.28-1.356-2.256-2.704-2.256s-2.467,0.976-2.703,2.256
		h-8.316c-0.236-1.28-1.355-2.256-2.703-2.256c-1.35,0-2.471,0.976-2.706,2.256H15.43V27.98h5.885l3.104-5.36h11.56l3.105,5.36
		h1.803v5.207H40.885z"/>
	<rect x="29.684" y="23.729" width="5.121" height="4.178"/>
	<polygon points="35.805,27.904 37.757,27.904 35.805,24.533 	"/>
	<polygon points="22.637,27.904 28.684,27.904 28.684,23.729 25.057,23.729 	"/>
</g>
</svg>
