<?xml version="1.0" encoding="utf-8"?>
<!-- Generator: Adobe Illustrator 17.0.0, SVG Export Plug-In . SVG Version: 6.00 Build 0)  -->
<!DOCTYPE svg PUBLIC "-//W3C//DTD SVG 1.1//EN" "http://www.w3.org/Graphics/SVG/1.1/DTD/svg11.dtd">
<svg version="1.1" id="svg" xmlns="http://www.w3.org/2000/svg" xmlns:xlink="http://www.w3.org/1999/xlink" x="0px" y="0px"
	 width="13.759px" height="20.472px" viewBox="0 0 13.759 20.472" enable-background="new 0 0 13.759 20.472" xml:space="preserve">
<path d="M0.528,6.984h5.825v5.602H0.528V6.984z M7.572,6.984v5.602h5.659V6.984H7.572z M7.572,19.686h5.659v-5.879H7.572V19.686z
	 M0.528,19.686h5.825v-5.879H0.528V19.686z M10.036,6.376H7.319V3.659h0.013C7.457,2.413,8.508,1.44,9.787,1.44
	c1.364,0,2.468,1.104,2.468,2.468c0,1.28-0.972,2.33-2.219,2.456L10.036,6.376z M9.935,5.356c0.735-0.073,1.308-0.693,1.308-1.448
	c0-0.803-0.652-1.455-1.455-1.455c-0.754,0-1.375,0.573-1.449,1.308H8.332v1.603h1.603C9.935,5.364,9.935,5.356,9.935,5.356z
	 M6.592,3.3h0.015v3.077H3.529V6.362C2.117,6.22,1.015,5.029,1.015,3.58c0-1.544,1.251-2.795,2.796-2.795
	C5.259,0.786,6.451,1.888,6.592,3.3z M5.459,3.415H5.451c-0.082-0.833-0.786-1.482-1.64-1.482c-0.911,0-1.649,0.739-1.649,1.648
	c0,0.854,0.65,1.557,1.482,1.64V5.23h1.815V3.415z"/>
</svg>
