<svg id="svg" width="18.087" xmlns="http://www.w3.org/2000/svg" height="16.215" viewBox="0 0 18.087 16.215" xmlns:xlink="http://www.w3.org/1999/xlink" enable-background="new 0 0 18.087 16.215">
<path d="m17.859,3.736c-.233-.688-.486-1.129-1.062-1.623 0,0-.369-.416-.869-.783-.696-.516-1.726-.703-2.689-.717h-.07c-1.486,0-2.837,.695-3.621,1.357-.319-.318-1.323-1.238-2.675-1.693-.551-.184-1.112-.277-1.668-.277-.61,0-1.217,.113-1.803,.336-.911,.346-1.669,.838-2.138,1.387-.475,.576-.718,1.127-.958,1.828-.456,1.33-.403,2.602 .164,3.992 .138,.34 .327,.705 .557,1.088h-.001l.021,.035c.017,.027 .032,.055 .05,.084h.004l.23,.359h-.005c.024,.037 .047,.07 .072,.107 .005,.008 .012,.016 .017,.023l.007,.01c.212,.311 .449,.635 .714,.967 .355,.453 .804,.902 1.239,1.338 .175,.176 .347,.348 .512,.518 1.075,1.119 2.306,2.223 3.378,3.033 .544,.41 1.299,.934 1.801,1.094l.054,.016 .053-.021c.077-.029 .163-.072 .257-.121 .607-.322 1.502-.984 2.52-1.863 .75-.65 1.516-1.373 2.212-2.096 .175-.182 .358-.363 .544-.547 .43-.43 .876-.875 1.228-1.313 .285-.354 .537-.689 .758-1.012l.004,.008 .399-.619-.011,.002c.253-.416 .445-.803 .568-1.152 .5-1.407 .569-2.666 .207-3.745zm-4.193,5.79c0,.072-.059,.129-.128,.129h-2.833v2.832c0,.07-.057,.127-.127,.127h-2.258c-.071,0-.128-.057-.128-.127v-2.832h-2.833c-.07,0-.127-.057-.127-.129v-2.258c0-.07 .057-.127 .127-.127h2.833v-2.834c0-.07 .057-.129 .128-.129h2.258c.07,0 .127,.059 .127,.129v2.834h2.833c.07,0 .128,.057 .128,.127v2.258z"/>
</svg>
