<?xml version="1.0" encoding="utf-8"?>
<!-- Generator: Adobe Illustrator 17.0.0, SVG Export Plug-In . SVG Version: 6.00 Build 0)  -->
<!DOCTYPE svg PUBLIC "-//W3C//DTD SVG 1.1//EN" "http://www.w3.org/Graphics/SVG/1.1/DTD/svg11.dtd">
<svg version="1.1" id="svg" xmlns="http://www.w3.org/2000/svg" xmlns:xlink="http://www.w3.org/1999/xlink" x="0px" y="0px"
	 width="18.013px" height="18.016px" viewBox="0 0 18.013 18.016" enable-background="new 0 0 18.013 18.016" xml:space="preserve">
<path d="M5.869,6.157L1.972,2.258c0.503-0.503,1.005-1.007,1.509-1.511c0.233-0.233,0.61-0.237,0.843-0.007L7.36,3.779
	c0.232,0.232,0.232,0.614-0.003,0.848L6.692,5.291L6.073,5.91C5.997,5.987,5.928,6.069,5.869,6.157z M9.075,12.508
	c-0.638-0.549-1.25-1.132-1.844-1.725c-0.593-0.597-1.174-1.207-1.723-1.848c-0.45-0.52-0.538-1.273-0.303-1.907L1.204,3.027
	c-0.931,0.957-0.812,3.33,0.208,5.415c0.438,0.902,1.006,1.716,1.593,2.49c0.586,0.768,1.229,1.495,1.906,2.176
	c0.679,0.681,1.401,1.327,2.171,1.913c0.774,0.589,1.59,1.154,2.486,1.59c2.088,1.019,4.462,1.131,5.418,0.199l-4.001-4.001
	C10.351,13.044,9.597,12.957,9.075,12.508z M17.27,13.689l-3.036-3.037c-0.233-0.23-0.615-0.23-0.848,0.003h-0.001l-0.667,0.666
	l-0.616,0.618c-0.076,0.076-0.159,0.143-0.247,0.205l3.897,3.899c0.504-0.505,1.007-1.007,1.511-1.51
	C17.498,14.299,17.503,13.922,17.27,13.689z"/>
</svg>
